<svg xmlns="http://www.w3.org/2000/svg" version="1.1" xmlns:xlink="http://www.w3.org/1999/xlink" xmlns:svgjs="http://svgjs.dev/svgjs" width="1000" height="1000" viewBox="0 0 1000 1000"><rect width="1000" height="1000" fill="#000000"></rect><g transform="matrix(0.7,0,0,0.7,149.57575816707055,404.40294584537855)"><svg viewBox="0 0 396 108" data-background-color="#1b4571" preserveAspectRatio="xMidYMid meet" height="272" width="1000" xmlns="http://www.w3.org/2000/svg" xmlns:xlink="http://www.w3.org/1999/xlink"><g id="tight-bounds" transform="matrix(1,0,0,1,0.23999966548581142,1.438757316172996)"><svg viewBox="0 0 395.52 72.90946397374361" height="72.90946397374361" width="395.52"><g><svg viewBox="0 0 492.580036799624 90.80134113882355" height="72.90946397374361" width="395.52"><g><rect width="5.925150977484198" height="66.0313660235294" x="411.03086643320466" y="12.384987557647072" fill="#ffffff" opacity="1" stroke-width="0" stroke="transparent" fill-opacity="1" class="rect-o-0" data-fill-palette-color="primary" rx="1%" id="o-0" data-palette-color="#ffffff"></rect></g><g transform="matrix(1,0,0,1,0,12.549244687058831)"><svg viewBox="0 0 395.52 65.70285176470588" height="65.70285176470588" width="395.52"><g id="textblocktransform"><svg viewBox="0 0 395.52 65.70285176470588" height="65.70285176470588" width="395.52" id="textblock"><g><svg viewBox="0 0 395.52 65.70285176470588" height="65.70285176470588" width="395.52"><g transform="matrix(1,0,0,1,0,0)"><svg width="395.52" viewBox="2.5 -35.099998474121094 216.8300018310547 35.29999923706055" height="65.70285176470588" data-palette-color="#ffffff"><g class="wordmark-text-0" data-fill-palette-color="primary" id="text-0"><path d="M2.5-34.95L12.55-35Q12.55-34.95 12.6-34.25L12.6-34.25 9.15-33.95 9.15-1 22.95-1 23.95-9 24.9-8.75 24.15 0 12.55 0 2.5 0.05 2.55-0.65 5.15-1Q5.65-1.05 5.75-1.65L5.75-1.65 5.75-33.3Q5.65-33.9 5.15-33.95L5.15-33.95 2.55-34.2 2.5-34.95ZM30.8-33.95L28.15-34.25 28.2-35 49.6-35 49.55-34.85 50.2-27.8 49.2-27.4 48.4-34 34.8-34 34.8-17.85 46.75-17.85Q47-17.8 47.2-17.98 47.4-18.15 47.4-18.45L47.4-18.45 47.6-21.9 48.4-22 48.4-13.45Q48.35-13.45 47.65-13.4L47.65-13.4 47.45-16.85 34.8-16.85 34.8-1 49.75-1 50.7-9 51.65-8.75 50.9 0 38.2 0 28.15 0.05 28.2-0.65 30.8-1Q31.3-1.05 31.4-1.65L31.4-1.65 31.4-33.3Q31.3-33.9 30.8-33.95L30.8-33.95ZM72.3-14.4L81.3-14.45Q81.3-14.4 81.34-13.7L81.34-13.7 79.34-13.45 79.34-1.05Q78.5-0.75 74.82-0.28 71.15 0.2 68.84 0.2 66.55 0.2 64.84-0.13 63.15-0.45 61.25-1.5 59.35-2.55 58.02-4.28 56.7-6 55.8-9 54.9-12 54.9-16L54.9-16Q54.9-24.85 58.95-29.8L58.95-29.8Q63.2-35 70.55-35L70.55-35Q72.8-35 75.42-34.58 78.05-34.15 79.15-33.75L79.15-33.75 79.75-26.55 78.8-26.2 78.15-31.55Q74.09-34.3 70.55-34.3L70.55-34.3Q64.9-34.3 61.6-29.6 58.3-24.9 58.3-16L58.3-16Q58.3-5.2 63.25-2.05L63.25-2.05Q64.75-1.1 66.02-0.83 67.3-0.55 69.59-0.55 71.9-0.55 76.34-1.2L76.34-1.2 76.55-12.7Q76.55-13.3 75.95-13.4L75.95-13.4 72.34-13.65Q72.3-13.95 72.3-14.4L72.3-14.4ZM96.14 0L86.09 0.05 86.14-0.65 88.74-1Q89.24-1.05 89.34-1.65L89.34-1.65 89.39-1.65 89.39-33.25 89.34-33.25Q89.24-33.9 88.74-33.95L88.74-33.95 86.14-34.2 86.09-34.95 96.14-35Q96.14-34.95 96.19-34.25L96.19-34.25 92.79-33.95 92.79-0.95 96.19-0.75Q96.19-0.7 96.14 0L96.14 0ZM110.59-0.95L110.59-0.95Q114.29-0.95 117.09-3.13 119.89-5.3 119.89-9.75L119.89-9.75Q119.89-11.75 118.91-13.18 117.94-14.6 116.34-15.38 114.74-16.15 112.84-16.73 110.94-17.3 109.04-17.95 107.14-18.6 105.54-19.5 103.94-20.4 102.97-22.05 101.99-23.7 101.99-26L101.99-26Q101.99-30 104.74-32.55 107.49-35.1 112.09-35.1 116.69-35.1 120.89-34.05L120.89-34.05 121.44-27.8 120.49-27.4 119.99-31.35Q116.29-34.1 113.04-34.1 109.79-34.1 107.59-32.13 105.39-30.15 105.39-26.2L105.39-26.2Q105.39-23.9 107.24-22.55 109.09-21.2 111.72-20.45 114.34-19.7 116.97-18.75 119.59-17.8 121.44-15.55 123.29-13.3 123.29-9.7L123.29-9.7Q123.29-4.85 119.84-2.4 116.39 0.05 110.74 0.05 105.09 0.05 100.94-3L100.94-3 100.99-8.3 101.94-8.55 102.04-5.7Q103.39-3.8 105.74-2.38 108.09-0.95 110.59-0.95ZM142.69-34.3L142.69-34.3Q137.04-34.3 133.74-29.6 130.44-24.9 130.44-16L130.44-16Q130.44-5.2 135.39-2.05L135.39-2.05Q136.89-1.1 138.16-0.83 139.44-0.55 140.99-0.55L140.99-0.55Q145.94-0.55 151.34-1.75L151.34-1.75 151.49-1.05Q150.64-0.75 146.96-0.28 143.29 0.2 140.99 0.2 138.69 0.2 136.99-0.13 135.29-0.45 133.39-1.5 131.49-2.55 130.16-4.28 128.84-6 127.94-9 127.04-12 127.04-16L127.04-16Q127.04-24.85 131.09-29.8L131.09-29.8Q135.34-35 142.69-35L142.69-35Q144.94-35 147.56-34.58 150.19-34.15 151.29-33.75L151.29-33.75 151.89-26.55 150.94-26.2 150.29-31.55Q146.24-34.3 142.69-34.3ZM163.94 0L153.88 0.05 153.94-0.65 156.53-1Q156.88-1.05 157.13-1.65L157.13-1.65 167.94-35 171.23-35 182.73-0.95 186.19-0.75Q186.19-0.7 186.13 0L186.13 0 176.13 0.05Q176.13-0.4 176.19-0.65L176.19-0.65 178.78-1Q179.19-1.05 179.19-1.6L179.19-1.6 176.44-9.75 160.83-9.75 158.19-1.05 163.98-0.75Q163.98-0.7 163.94 0L163.94 0ZM176.08-10.75L168.28-34.05 161.13-10.75 176.08-10.75ZM191.53-33.95L188.88-34.25 188.93-35 195.78-35 215.23-1.4 214.98-33.25Q214.78-33.75 214.43-33.8L214.43-33.8 209.83-34.2Q209.78-34.5 209.78-34.95L209.78-34.95 219.28-35Q219.28-34.95 219.33-34.25L219.33-34.25 216.13-33.9 216.13 0 212.48 0 193.03-33.6 193.28-1.05 198.98-0.75Q198.98-0.7 198.93 0L198.93 0 188.88 0.05 188.93-0.65 191.53-1Q192.03-1.05 192.13-1.65L192.13-1.65 192.13-33.3Q192.03-33.9 191.53-33.95L191.53-33.95Z" fill="#ffffff" data-fill-palette-color="primary"></path></g></svg></g></svg></g></svg></g></svg></g><g transform="matrix(1,0,0,1,432.4668838438935,0)"><svg viewBox="0 0 60.1131529557304 90.80134113882355" height="90.80134113882355" width="60.1131529557304"><g><svg xmlns="http://www.w3.org/2000/svg" xmlns:xlink="http://www.w3.org/1999/xlink" version="1.1" x="0" y="0" viewBox="24.761856079101562 5 59.5826416015625 90" enable-background="new 0 0 100 100" xml:space="preserve" height="90.80134113882355" width="60.1131529557304" class="icon-icon-0" data-fill-palette-color="accent" id="icon-0"><g fill="#bf2051" data-fill-palette-color="accent"><path d="M73.76 35.603C86.875 48 91.5 66.25 65.633 82.379c3.64-4.928 5.654-9.794 6.096-14.669 0.951-10.516-5.606-19.072-12.835-26.752C48.298 29.7 47.51 18.84 56.413 6.782 54.578 22.641 64.6 26.944 73.76 35.603zM45.288 93.716c6.184-13.053 7.276-20.302-8.197-34.939-4.204-3.977-7.451-8.029-9.71-12.086-2.881 6.435-5.164 20.081 3.244 27.935C36.312 79.938 44.125 83.125 45.288 93.716zM56.709 43.014C48.183 33.954 41.999 21.253 54 5 21.497 17.692 19.625 38.125 39.151 56.597 55.603 72.158 54.75 80.75 48 95 79.875 71.5 68.709 55.764 56.709 43.014z" fill="#ffffff" data-fill-palette-color="accent"></path></g><g display="none" fill="#bf2051" data-fill-palette-color="accent"><path display="inline" d="M54 5C16.75 17.5 14.875 56.5 26.75 70.762c10.558 12.68 15.407 7.949 19.675 20.824" fill="#ffffff" data-fill-palette-color="accent"></path><line display="inline" x1="56.988" y1="5.261" x2="45.528" y2="136.262" fill="#ffffff" data-fill-palette-color="accent"></line><line display="inline" x1="54.131" y1="3.502" x2="42.67" y2="134.502" fill="#ffffff" data-fill-palette-color="accent"></line><path display="inline" d="M42.875 76" fill="#ffffff" data-fill-palette-color="accent"></path></g></svg></g></svg></g></svg></g><defs></defs></svg><rect width="395.52" height="72.90946397374361" fill="none" stroke="none" visibility="hidden"></rect></g></svg></g></svg>